<svg width="21" height="18" viewBox="0 0 21 18" fill="none" xmlns="http://www.w3.org/2000/svg">
<path d="M16.6017 0.596619H4.4098C2.07015 0.596619 0.170532 2.49638 0.170532 4.8362V11.3834C0.170532 13.251 1.39402 14.8717 3.17022 15.3922L5.21473 17.4422C5.32741 17.5549 5.48303 17.6193 5.64402 17.6193C5.805 17.6193 5.96062 17.5549 6.07331 17.4422L7.95147 15.564H16.6017C18.9414 15.564 20.841 13.6642 20.841 11.3244V4.8362C20.8356 2.49638 18.936 0.596619 16.6017 0.596619ZM6.05185 9.15091C6.05185 8.81819 6.32552 8.54449 6.65822 8.54449H14.3479C14.6806 8.54449 14.9543 8.81819 14.9543 9.15091C14.9543 9.48364 14.6806 9.75734 14.3479 9.75734H6.65822C6.32552 9.75197 6.05185 9.48364 6.05185 9.15091ZM14.3479 7.61071H6.65822C6.32552 7.61071 6.05185 7.33702 6.05185 7.00429C6.05185 6.67156 6.32552 6.39787 6.65822 6.39787H14.3479C14.6806 6.39787 14.9543 6.67156 14.9543 7.00429C14.9543 7.34238 14.6806 7.61071 14.3479 7.61071Z" fill="#BEBDBB"/>
</svg>
