<svg width="17" height="19" viewBox="0 0 17 19" fill="none" xmlns="http://www.w3.org/2000/svg">
<path d="M2.30225 11.8951L6.33894 12.4177C5.99984 13.2521 5.605 14.5803 5.605 16.2394C5.605 17.1696 5.893 17.8553 6.46437 18.2773C6.84992 18.5602 7.34231 18.704 7.92761 18.704H7.95548L7.98335 18.6992C8.94956 18.589 9.2422 17.6539 9.2004 17.0497C9.19575 16.8915 9.20969 16.7381 9.24685 16.5942C9.35369 16.1627 9.53485 15.803 9.96221 14.9399L9.98079 14.9016C10.2688 14.3214 10.5986 14.1152 11.0585 13.8227C11.4487 13.5781 11.89 13.3 12.3684 12.763C12.5821 12.5184 12.833 12.1636 13.0513 11.7848C13.0931 11.7321 13.1256 11.6649 13.1535 11.5978C13.1581 11.593 13.1628 11.5834 13.1628 11.5786C13.1721 11.5594 13.186 11.5355 13.1999 11.5019C13.2232 11.4587 13.2464 11.4108 13.2696 11.3628C13.683 10.9936 14.3241 10.9984 14.7096 11.0032C14.7514 11.0032 14.7886 11.0032 14.8211 11.0032C15.504 11.0032 15.9034 10.7251 16.1218 10.4949C16.4237 10.1737 16.5863 9.71814 16.5863 9.1811V3.31197C16.5863 2.92358 16.5398 2.36735 16.1264 1.98375C15.7409 1.62412 15.1974 1.58097 14.8211 1.58097H13.5762C13.2696 1.58097 12.977 1.44671 12.6053 1.27409C12.3963 1.17818 12.1548 1.0679 11.8807 0.967203C10.5986 0.50688 8.89381 0.295898 6.51082 0.295898C6.05094 0.295898 4.62021 0.295898 4.61557 0.295898C4.09995 0.295898 3.6122 0.50688 3.21271 0.900073C2.99903 1.11105 2.86897 1.37478 2.81787 1.70564C2.80394 1.77756 2.79929 1.9358 2.79929 2.01732C2.79 2.2283 2.82252 2.42969 2.88755 2.6119C2.47413 2.65985 2.08393 2.84686 1.78663 3.13935C1.41966 3.49898 1.21992 4.00246 1.21992 4.55389C1.21992 4.95667 1.34534 5.33548 1.57295 5.65195C1.43824 5.71908 1.30818 5.81019 1.19669 5.92527C0.899398 6.22256 0.746106 6.63493 0.74146 7.1528C0.722879 7.66587 0.894752 8.1166 1.22456 8.44746C0.885462 8.7927 0.657846 9.30097 0.63462 9.86679C0.588168 10.9361 1.33605 11.8375 2.30225 11.8951Z" fill="#BEBDBB"/>
</svg>
