<svg width="16" height="19" viewBox="0 0 16 19" fill="none" xmlns="http://www.w3.org/2000/svg">
<path d="M14.2841 7.10485L10.2474 6.58219C10.5865 5.74786 10.9814 4.41964 10.9814 2.76055C10.9814 1.83032 10.6934 1.14463 10.122 0.722664C9.73645 0.439757 9.24405 0.295905 8.65876 0.295905L8.63088 0.295905L8.60301 0.3007C7.63681 0.410987 7.34416 1.34602 7.38597 1.95019C7.39061 2.10843 7.37668 2.26187 7.33951 2.40572C7.23267 2.83727 7.05151 3.1969 6.62415 4.06001L6.60557 4.09837C6.31757 4.67857 5.98776 4.88475 5.52788 5.17725C5.13768 5.4218 4.69639 5.69991 4.21793 6.23695C4.00425 6.4815 3.75341 6.83633 3.53508 7.21514C3.49328 7.26789 3.46076 7.33502 3.43289 7.40215C3.42824 7.40694 3.4236 7.41653 3.4236 7.42133C3.41431 7.44051 3.40037 7.46448 3.38644 7.49805C3.36321 7.5412 3.33999 7.58915 3.31676 7.6371C2.90334 8.00632 2.2623 8.00153 1.87674 7.99673C1.83494 7.99673 1.79777 7.99673 1.76526 7.99673C1.08241 7.99673 0.682922 8.27484 0.464598 8.50501C0.162659 8.82627 7.64239e-05 9.2818 7.64709e-05 9.81884L7.69839e-05 15.688C7.70179e-05 16.0764 0.0465286 16.6326 0.459953 17.0162C0.845506 17.3758 1.389 17.419 1.76526 17.419L3.01018 17.419C3.31676 17.419 3.60941 17.5532 3.98103 17.7259C4.19006 17.8218 4.43161 17.932 4.70568 18.0327C5.98776 18.4931 7.69255 18.704 10.0755 18.704C10.5354 18.704 11.9662 18.704 11.9708 18.704C12.4864 18.704 12.9742 18.4931 13.3736 18.0999C13.5873 17.8889 13.7174 17.6252 13.7685 17.2943C13.7824 17.2224 13.7871 17.0641 13.7871 16.9826C13.7964 16.7716 13.7638 16.5703 13.6988 16.388C14.1122 16.3401 14.5024 16.1531 14.7997 15.8606C15.1667 15.501 15.3664 14.9975 15.3664 14.4461C15.3664 14.0433 15.241 13.6645 15.0134 13.348C15.1481 13.2809 15.2782 13.1898 15.3897 13.0747C15.687 12.7774 15.8403 12.365 15.8449 11.8471C15.8635 11.3341 15.6916 10.8833 15.3618 10.5525C15.7009 10.2072 15.9285 9.69897 15.9517 9.13315C15.9982 8.06386 15.2503 7.16239 14.2841 7.10485Z" fill="#BEBDBB"/>
</svg>
