<svg width="11" height="12" viewBox="0 0 11 12" fill="none" xmlns="http://www.w3.org/2000/svg">
<path d="M9.10256 8.08705L7.38462 7.73449C7.20086 7.69967 7.06838 7.53428 7.06838 7.34276V6.94233C7.17949 6.78128 7.28632 6.56801 7.39744 6.34603C7.48291 6.17628 7.60684 5.92383 7.66239 5.86289C7.99573 5.5321 8.35043 5.11861 8.45726 4.58324C8.55556 4.09576 8.45727 3.84331 8.34188 3.64309C8.34188 3.25136 8.34188 2.53754 8.2094 2.01959C8.19658 1.39717 8.08547 1.04461 7.80342 0.73123C7.60256 0.513602 7.31197 0.461371 7.07265 0.422198C6.97863 0.404788 6.85043 0.383025 6.80769 0.35691C6.40171 0.126224 5.98718 0.0130577 5.47863 0C4.44017 0.039173 3.17094 0.709467 2.74359 1.91513C2.61538 2.28074 2.62821 2.88139 2.63675 3.36453L2.62393 3.64744C2.52564 3.84766 2.42735 4.10011 2.52564 4.58759C2.63248 5.12731 2.98718 5.53645 3.32051 5.86725C3.37607 5.92818 3.50427 6.18498 3.58974 6.35473C3.70085 6.57671 3.80769 6.78999 3.92308 6.95103V7.35147C3.92308 7.54298 3.7906 7.70838 3.60684 7.7432L1.88889 8.09576C0.794872 8.30903 0 9.29706 0 10.4374V11.1991C0 11.6387 0.354701 12 0.786325 12H10.2137C10.6453 12 11 11.6387 11 11.1991V10.4374C10.9957 9.29706 10.2009 8.30903 9.10256 8.08705Z" fill="#BEBDBB"/>
</svg>
