<svg width="11" height="12" viewBox="0 0 11 12" fill="none" xmlns="http://www.w3.org/2000/svg">
<path d="M0.259766 8.57269C0.394686 8.47255 0.520612 8.36371 0.633046 8.2418C1.06029 7.88479 1.47855 7.51906 1.88331 7.13593C2.00923 7.0532 2.11267 6.94871 2.21611 6.84422C2.64336 6.48721 3.06161 6.11713 3.46637 5.73835C3.49785 5.71658 3.53383 5.69481 3.5878 5.65562C3.5878 5.76012 3.5878 5.84284 3.5878 5.92992C3.5878 6.35224 3.5833 6.77456 3.5833 7.19688C3.5833 7.33185 3.65076 7.39716 3.79018 7.39716C4.22642 7.3928 4.66267 7.3928 5.09891 7.3928C5.31029 7.3928 5.52616 7.3928 5.73753 7.3928C6.53356 7.3928 7.32959 7.3928 8.12562 7.3928C8.328 7.39716 8.53039 7.41892 8.73277 7.36233C9.38038 7.28831 9.90657 7.00096 10.3203 6.51768C10.4328 6.41754 10.5182 6.29128 10.5857 6.15632C10.7116 5.95604 10.8375 5.76012 10.9634 5.55984C10.9724 5.55984 10.9814 5.56419 10.9904 5.56419C10.9904 5.9125 10.9904 6.26081 10.9904 6.60911C10.9904 6.81374 10.9904 7.02273 10.9904 7.22736C10.9904 7.77594 10.9859 8.32888 10.9859 8.87746C10.9859 9.08644 10.9949 9.29978 10.95 9.50441C10.878 9.63503 10.806 9.76129 10.7386 9.8919C10.4597 10.201 10.109 10.3403 9.6862 10.3229C9.41186 10.3142 9.14202 10.3229 8.86769 10.3273C8.65631 10.3273 8.44044 10.3273 8.22906 10.3273C7.43303 10.3273 6.637 10.3273 5.84097 10.3273C5.6296 10.3273 5.41372 10.3273 5.20235 10.3273C4.73462 10.3273 4.2624 10.3229 3.79468 10.3229C3.65526 10.3229 3.5878 10.3839 3.5878 10.5189C3.5878 10.7365 3.5923 10.9499 3.5923 11.1676C3.5923 11.3722 3.5923 11.5812 3.5923 11.7858C3.5923 11.8555 3.5923 11.9251 3.5923 11.9948C3.52934 12.0166 3.50685 11.9643 3.47987 11.9426C2.34204 10.9368 1.20421 9.93108 0.0618829 8.9297C-0.0235667 8.85133 -0.0190694 8.81215 0.0663802 8.7512C0.138338 8.69895 0.196803 8.63364 0.259766 8.57269Z" fill="#BEBDBB"/>
<path d="M0.884899 5.30296C0.749978 5.4031 0.637545 5.52501 0.552095 5.66869C0.349715 5.9125 0.219292 6.20421 0.00791647 6.46108C0.00791647 5.99958 0.00791647 5.54243 0.00791647 5.08092C0.00791647 4.87629 0.00791647 4.66731 0.00791647 4.46268C0.00791647 3.98375 0.0169112 3.50048 0.0124138 3.02156C0.00791647 2.76468 0.0438952 2.51651 0.156329 2.28141C0.250773 2.17256 0.34072 2.06807 0.435164 1.95922C0.718497 1.75459 1.03331 1.68493 1.37961 1.69364C1.74389 1.70235 6.87087 1.69364 7.23515 1.69364C7.36108 1.69364 7.41954 1.62833 7.41954 1.51078C7.41954 1.17989 7.41504 0.848997 7.41504 0.518106C7.41954 0.343953 7.41954 0.169799 7.42404 0C7.77483 0.26123 8.08515 0.565998 8.40896 0.853351C9.24546 1.58915 10.0775 2.33365 10.9185 3.0651C11.0264 3.16088 11.0264 3.21748 10.923 3.29585C10.8105 3.39599 10.6936 3.50048 10.5812 3.60062C10.1584 3.95328 9.74467 4.319 9.34441 4.69343C9.22298 4.80227 9.10155 4.91112 8.97562 5.01997C8.57086 5.37698 8.1661 5.73399 7.76134 6.09536C7.6579 6.18244 7.55446 6.26952 7.41954 6.37836C7.41954 6.15632 7.41954 5.96039 7.41954 5.76882C7.41954 5.45535 7.42404 5.14187 7.42404 4.8284C7.42404 4.69343 7.35208 4.63247 7.21716 4.63247C6.89335 4.63247 2.79177 4.64118 2.5804 4.64118C1.91929 4.65424 1.35712 4.86758 0.884899 5.30296Z" fill="#BEBDBB"/>
</svg>
